# xmcd
#
# Track frame offsets: 
#        150
#        18712
#        40261
#        60943
#        85543
#        108696
#        135470
#        157712
#        178169
#        195648
#        219019
#        242107
#
# Disc length: 3558 seconds
#
# Revision: 0
# Processed by: cddbd v1.5.2PL0 Copyright (c) Steve Scherf et al.
# Submitted via: ExactAudioCopy v1.1
#
DISCID=930de40c
DTITLE=Master Thieves - Robbing The Blind
DYEAR=2011
DGENRE=
TTITLE0=Goin' Back Home
TTITLE1=Big Brown Wookie
TTITLE2=No Slowing Down
TTITLE3=Dirt Road Delivery
TTITLE4=Blues #12
TTITLE5=It Is Cuz It Is
TTITLE6=Trainsong
TTITLE7=Always Searching For More
TTITLE8=Prove Me Wrong
TTITLE9=Back To Reality
TTITLE10=Relax
TTITLE11=Friends
EXTD=
EXTT0=
EXTT1=
EXTT2=
EXTT3=
EXTT4=
EXTT5=
EXTT6=
EXTT7=
EXTT8=
EXTT9=
EXTT10=
EXTT11=
PLAYORDER=
